<svg width="120" height="40" viewBox="0 0 120 40" fill="none" xmlns="http://www.w3.org/2000/svg">
<rect width="120" height="40" rx="4" fill="#4D6A95"/>
<path d="M22.9062 14.2426L16.8958 20.253C16.3101 20.8388 16.3101 21.7886 16.8958 22.3744V22.3744C17.4816 22.9602 18.4314 22.9602 19.0172 22.3744L25.0276 16.364C26.1991 15.1924 26.1991 13.2929 25.0276 12.1213V12.1213C23.856 10.9497 21.9565 10.9497 20.7849 12.1213L13.3603 19.5459C11.6029 21.3033 11.6029 24.1525 13.3603 25.9099V25.9099C15.1177 27.6673 17.9669 27.6673 19.7243 25.9099L25.0276 20.6066" stroke="white" stroke-width="1.8" stroke-linecap="square"/>
<path d="M35.976 14.836H44.024V15.924H35.976V14.836ZM35.768 24.18L35.608 23.044C38.216 23.044 41.72 23.012 44.696 22.644L44.776 23.636C41.752 24.132 38.312 24.18 35.768 24.18ZM37.528 15.652H38.824V23.348H37.528V15.652ZM41.176 15.652H42.472V23.348H41.176V15.652ZM45.576 13.284H46.92V27.748H45.576V13.284ZM46.6 19.06H49.288V20.18H46.6V19.06ZM54.5668 13.812C56.7268 13.812 58.3108 15.124 58.3108 17.028C58.3108 18.916 56.7268 20.228 54.5668 20.228C52.4228 20.228 50.8388 18.916 50.8388 17.028C50.8388 15.124 52.4228 13.812 54.5668 13.812ZM54.5668 14.9C53.1748 14.9 52.1188 15.78 52.1188 17.028C52.1188 18.276 53.1748 19.14 54.5668 19.14C55.9748 19.14 57.0148 18.276 57.0148 17.028C57.0148 15.78 55.9748 14.9 54.5668 14.9ZM61.0308 13.284H62.3748V20.692H61.0308V13.284ZM53.0148 21.396H62.3748V24.916H54.3428V27.092H53.0468V23.924H61.0628V22.468H53.0148V21.396ZM53.0468 26.5H62.8548V27.556H53.0468V26.5ZM76.0796 16.724H79.9676V17.828H76.0796V16.724ZM72.7516 13.94C74.9116 13.94 76.4796 15.316 76.4796 17.3C76.4796 19.284 74.9116 20.644 72.7516 20.644C70.5916 20.644 69.0236 19.284 69.0236 17.3C69.0236 15.316 70.5916 13.94 72.7516 13.94ZM72.7516 15.06C71.3276 15.06 70.3036 15.972 70.3036 17.3C70.3036 18.612 71.3276 19.54 72.7516 19.54C74.1756 19.54 75.1996 18.612 75.1996 17.3C75.1996 15.972 74.1756 15.06 72.7516 15.06ZM79.3756 13.284H80.7036V21.044H79.3756V13.284ZM71.4396 21.764H72.7676V23.588H79.3916V21.764H80.7036V27.556H71.4396V21.764ZM72.7676 24.644V26.484H79.3916V24.644H72.7676ZM83.5344 24.868H96.6384V25.972H83.5344V24.868ZM89.3904 21.764H90.7184V25.332H89.3904V21.764ZM85.1184 14.356H95.0224V18.74H86.4784V21.636H85.1664V17.668H93.7104V15.428H85.1184V14.356ZM85.1664 21.076H95.3584V22.164H85.1664V21.076ZM99.9011 20.212H109.837V21.3H99.9011V20.212ZM98.2531 24.692H111.357V25.796H98.2531V24.692ZM99.9011 14.612H109.693V15.716H101.229V20.692H99.9011V14.612Z" fill="white"/>
</svg>
