<svg width="24" height="24" viewBox="0 0 24 24" fill="none" xmlns="http://www.w3.org/2000/svg">
<path d="M16.2393 17.6564C16.6298 18.0469 17.263 18.0469 17.6535 17.6564C18.044 17.2659 18.044 16.6327 17.6535 16.2422L13.4108 11.9996L17.6535 7.75693C18.044 7.36641 18.044 6.73324 17.6535 6.34272C17.263 5.95219 16.6298 5.95219 16.2393 6.34272L11.9966 10.5853L7.75398 6.3427C7.36346 5.95217 6.73029 5.95217 6.33977 6.3427C5.94924 6.73322 5.94924 7.36639 6.33977 7.75691L10.5824 11.9996L6.33977 16.2422C5.94924 16.6327 5.94924 17.2659 6.33977 17.6564C6.73029 18.047 7.36346 18.047 7.75398 17.6564L11.9966 13.4138L16.2393 17.6564Z" fill="white"/>
</svg>
