<svg width="32" height="32" viewBox="0 0 32 32" fill="none" xmlns="http://www.w3.org/2000/svg">
<path fill-rule="evenodd" clip-rule="evenodd" d="M21.0783 17.6264C21.2422 17.1138 21.3307 16.5674 21.3307 16.0003C21.3307 13.0548 18.9429 10.667 15.9974 10.667C15.4303 10.667 14.8839 10.7555 14.3713 10.9194L16.1211 12.6692C17.8637 12.7328 19.2649 14.134 19.3285 15.8766L21.0783 17.6264ZM13.2794 14.0702C12.8919 14.6149 12.6641 15.281 12.6641 16.0003C12.6641 17.8413 14.1564 19.3337 15.9974 19.3337C16.7167 19.3337 17.3829 19.1058 17.9275 18.7183L19.3542 20.145C18.4376 20.8883 17.2695 21.3337 15.9974 21.3337C13.0519 21.3337 10.6641 18.9458 10.6641 16.0003C10.6641 14.7282 11.1094 13.5602 11.8527 12.6435L13.2794 14.0702Z" fill="#4D6A95"/>
<path fill-rule="evenodd" clip-rule="evenodd" d="M21.7832 23.2772L20.3142 21.8082C18.9571 22.5333 17.4991 23 16.0012 23C13.7551 23 11.5988 21.9506 9.73774 20.5544C7.887 19.1659 6.42376 17.5057 5.58476 16.4505C5.48632 16.3267 5.41201 16.2331 5.3503 16.1508C5.29862 16.0819 5.26597 16.0342 5.24474 16C5.26597 15.9658 5.29862 15.9181 5.3503 15.8492C5.41201 15.7669 5.48632 15.6733 5.58476 15.5495C6.42376 14.4943 7.887 12.8341 9.73774 11.4456C9.7785 11.415 9.8194 11.3846 9.86044 11.3544L8.43175 9.9257C6.44362 11.438 4.8989 13.1985 4.01931 14.3048C3.99553 14.3347 3.97072 14.3655 3.94519 14.3971C3.63838 14.7777 3.22656 15.2885 3.22656 16C3.22656 16.7115 3.63838 17.2223 3.94519 17.6029L3.94522 17.6029C3.97074 17.6346 3.99554 17.6653 4.01931 17.6952C4.91443 18.821 6.49839 20.6244 8.53749 22.1542C10.5663 23.6763 13.1425 25 16.0012 25C18.1196 25 20.0829 24.2731 21.7832 23.2772ZM11.9984 7.83548C13.2421 7.32389 14.5871 7 16.0012 7C18.8598 7 21.436 8.32371 23.4648 9.84581C25.5039 11.3756 27.0879 13.179 27.983 14.3048C28.0068 14.3347 28.0316 14.3655 28.0571 14.3971C28.3639 14.7777 28.7757 15.2885 28.7757 16C28.7757 16.7115 28.3639 17.2223 28.0571 17.6029L28.057 17.6031C28.0315 17.6347 28.0067 17.6654 27.983 17.6952C27.3317 18.5143 26.3158 19.6921 25.0252 20.8623L23.6092 19.4463C24.8254 18.3534 25.7939 17.2348 26.4175 16.4505C26.516 16.3267 26.5903 16.2331 26.652 16.1508C26.7037 16.0819 26.7363 16.0342 26.7576 16C26.7363 15.9658 26.7037 15.9181 26.652 15.8492C26.5903 15.7669 26.516 15.6733 26.4175 15.5495C25.5786 14.4943 24.1153 12.8341 22.2646 11.4456C20.4035 10.0494 18.2472 9 16.0012 9C15.1709 9 14.3529 9.14339 13.5576 9.39468L11.9984 7.83548Z" fill="#4D6A95"/>
<path d="M6.66406 3.66797L27.9974 25.0013" stroke="#4D6A95" stroke-width="2"/>
</svg>
