<svg width="24" height="24" viewBox="0 0 24 24" fill="none" xmlns="http://www.w3.org/2000/svg">
<path d="M16.2393 17.6574C16.6298 18.0479 17.263 18.0479 17.6535 17.6574C18.044 17.2669 18.044 16.6337 17.6535 16.2432L13.4108 12.0005L17.6535 7.75791C18.044 7.36738 18.044 6.73422 17.6535 6.3437C17.263 5.95317 16.6298 5.95317 16.2393 6.3437L11.9966 10.5863L7.75398 6.34367C7.36346 5.95315 6.73029 5.95315 6.33977 6.34367C5.94924 6.7342 5.94924 7.36736 6.33977 7.75789L10.5824 12.0005L6.33977 16.2432C5.94924 16.6337 5.94924 17.2669 6.33977 17.6574C6.73029 18.0479 7.36346 18.0479 7.75398 17.6574L11.9966 13.4148L16.2393 17.6574Z" fill="#002A68"/>
</svg>
