<svg width="32" height="32" viewBox="0 0 32 32" fill="none" xmlns="http://www.w3.org/2000/svg">
<circle cx="16" cy="16" r="16" fill="black" fill-opacity="0.55"/>
<path d="M20.2393 21.6574C20.6298 22.0479 21.263 22.0479 21.6535 21.6574C22.044 21.2669 22.044 20.6337 21.6535 20.2432L17.4108 16.0005L21.6535 11.7579C22.044 11.3674 22.044 10.7342 21.6535 10.3437C21.263 9.95317 20.6298 9.95317 20.2393 10.3437L15.9966 14.5863L11.754 10.3437C11.3635 9.95315 10.7303 9.95315 10.3398 10.3437C9.94924 10.7342 9.94924 11.3674 10.3398 11.7579L14.5824 16.0005L10.3398 20.2432C9.94924 20.6337 9.94924 21.2669 10.3398 21.6574C10.7303 22.0479 11.3635 22.0479 11.754 21.6574L15.9966 17.4148L20.2393 21.6574Z" fill="white"/>
</svg>
